# xmcd
#
# Track frame offsets:
#       150
#       13655
#       26752
#       41865
#       55917
#       69707
#       85295
#       96730
#       111445
#       124815
#       139585
#       153492
#       165542
#       177542
#
# Disc length: 2558 seconds
#
# Revision: 2
# Processed by: cddbd v1.4PL0 Copyright (c) Steve Scherf et al.
# Submitted via: CD-DA_X-Tractor v0.21
#
DISCID=cd09fc0e
DTITLE=Eddie Boyd - Third Degree
DYEAR=1900
DGENRE=
TTITLE0=Picture In The Frame
TTITLE1=I Got The Blues
TTITLE2=Got Lonesome Here
TTITLE3=Blues For My Baby
TTITLE4=Cool Kind Treatment
TTITLE5=24 Hours
TTITLE6=Hard Time Getting Started
TTITLE7=Best I Could
TTITLE8=The Tickler (Alt.)
TTITLE9=Third Degree
TTITLE10=Rattin' And Runnin' Round
TTITLE11=Just A Fool
TTITLE12=Hush Baby Don't You Cry
TTITLE13=Nothing But Trouble
EXTD=
EXTT0=
EXTT1=
EXTT2=
EXTT3=
EXTT4=
EXTT5=
EXTT6=
EXTT7=
EXTT8=
EXTT9=
EXTT10=
EXTT11=
EXTT12=
EXTT13=
PLAYORDER=
